<svg width="32" height="32" viewBox="0 0 32 32" fill="none" xmlns="http://www.w3.org/2000/svg">
<path d="M27.3137 4.68625C24.2917 1.66425 20.2737 0 16 0C11.7263 0 7.70825 1.66425 4.68625 4.68625C1.66425 7.70825 0 11.7263 0 16C0 20.2737 1.66431 24.2917 4.68625 27.3137C7.70819 30.3358 11.7263 32 16 32C20.2737 32 24.2917 30.3357 27.3137 27.3137C30.3357 24.2917 32 20.2737 32 16C32 11.7263 30.3357 7.70831 27.3137 4.68625Z" fill="#33CC95"/>
<g clip-path="url(#clip0_139730_197)">
<path d="M16.4572 6.40001V26.5143" stroke="white" stroke-width="2" stroke-linecap="round" stroke-linejoin="round"/>
<path d="M21.0286 10.0571H14.1714C13.3227 10.0571 12.5088 10.3943 11.9087 10.9944C11.3086 11.5945 10.9714 12.4085 10.9714 13.2571C10.9714 14.1058 11.3086 14.9198 11.9087 15.5199C12.5088 16.12 13.3227 16.4571 14.1714 16.4571H18.7429C19.5916 16.4571 20.4055 16.7943 21.0056 17.3944C21.6057 17.9945 21.9429 18.8085 21.9429 19.6571C21.9429 20.5058 21.6057 21.3198 21.0056 21.9199C20.4055 22.52 19.5916 22.8571 18.7429 22.8571H10.9714" stroke="white" stroke-width="2" stroke-linecap="round" stroke-linejoin="round"/>
</g>
<defs>
<clipPath id="clip0_139730_197">
<rect width="21.9429" height="21.9429" fill="white" transform="translate(5.48572 5.48572)"/>
</clipPath>
</defs>
</svg>
